<svg width="618" height="708" viewBox="0 0 618 708" fill="none" xmlns="http://www.w3.org/2000/svg">
<g clip-path="url(#clip0_1_2)">
<path d="M235.08 266.33C223.16 258.4 183.55 230.84 183.55 230.84C216.95 182.96 261.01 164.32 321.91 164.32C364.98 164.32 401.55 178.84 427.66 206.32C453.78 233.81 468.68 273.12 472.07 323.39C486.55 329.46 499.92 336.61 512.06 344.79C561.02 377.79 587.98 427.13 587.98 483.7C587.98 603.93 489.64 708.37 311.63 708.37C158.79 708.37 0 619.26 0 353.92C0 90.09 153.81 0 311.2 0C383.88 0 554.36 10.76 618.47 222.94L558.35 238.57C508.78 87.4 404.85 63.34 309.56 63.34C152.04 63.34 62.94 159.47 62.94 363.99C62.94 547.37 162.53 644.79 311.65 644.79C434.33 644.79 525.8 580.89 525.8 487.35C525.8 423.69 472.43 393.21 469.7 393.21C459.28 447.83 431.34 539.71 308.69 539.71C237.23 539.71 175.62 490.24 175.62 425.42C175.62 332.86 263.23 299.36 332.42 299.36C358.33 299.36 389.6 301.11 405.88 304.43C405.88 276.22 382.07 227.94 321.92 227.94C266.77 227.93 252.78 245.86 235.08 266.33ZM340.88 362.58C250.75 362.58 239.09 401.09 239.09 425.28C239.09 464.14 285.16 477.02 309.74 477.02C354.8 477.02 401.09 464.5 408.37 369.71C385.52 364.57 368.49 362.58 340.88 362.58Z" fill="black" style="fill:black;fill-opacity:1;"/>
</g>
<defs>
<clipPath id="clip0_1_2">
<rect width="618" height="708" fill="white" style="fill:white;fill-opacity:1;"/>
</clipPath>
</defs>
</svg>
